v -1 -1 -1
v -1 -1 1
v -1 1 1
v -1 1 -1
v 1 -1 -1
v 1 -1 1
v 1 1 1
v 1 1 -1
vt 0.5z 0.333
vt 0.500345 0.666
vt 0.751156 0.666
vt 0.751156 0.333
vt 0.249535 0.333
vt 0 0.334
vt 0 0.665
vt 0.249535 0.666
vt 0.500345 0
vt 0.249535 0
vt 1 0.665
vt 1 0.334
vt 0.500345 1
vt 0.249535 1
vn 1.000000 0.000000 -0.000000
vn -1.000000 -0.000000 0.000000
vn -0.000000 1.000000 -0.000000
vn 0.000000 -0.000000 -1.000000
vn 0.000000 -1.000000 0.000000
vn -0.000000 0.000000 1.000000
f 1/1/1 4/2/1 3/3/1
f 1/1/1 3/3/1 2/4/1
f 5/5/2 6/6/2 7/7/2
f 5/5/2 7/7/2 8/8/2
f 1/1/3 2/9/3 6/10/3
f 1/1/3 6/10/3 5/5/3
f 2/4/4 3/3/4 7/11/4
f 2/4/4 7/11/4 6/12/4
f 3/13/5 4/2/5 8/8/5
f 3/13/5 8/8/5 7/14/5
f 5/5/6 8/8/6 4/2/6
f 5/5/6 4/2/6 1/1/6
