# Blender v2.74 (sub 0) OBJ File: 'skybox.blend'
# www.blender.org
mtllib skybox.mtl
o Cube
v -8.131147 -8.131148 -8.131147
v -8.131147 -8.131148 8.131147
v -8.131148 8.131147 8.131145
v -8.131148 8.131144 -8.131150
v 8.131148 -8.131151 -8.131144
v 8.131148 -8.131142 8.131152
v 8.131146 8.131151 8.131145
v 8.131145 8.131146 -8.131147
vt 0.500345 0.333362
vt 0.500345 0.666638
vt 0.751156 0.666638
vt 0.751156 0.333362
vt 0.249535 0.333362
vt -0.001276 0.333362
vt -0.001275 0.666638
vt 0.249535 0.666638
vt 0.500345 0.000087
vt 0.249535 0.000087
vt 1.001966 0.666638
vt 1.001966 0.333362
vt 0.500345 0.999913
vt 0.249535 0.999913
vn 1.000000 0.000000 -0.000000
vn -1.000000 -0.000000 0.000000
vn -0.000000 1.000000 -0.000000
vn 0.000000 -0.000000 -1.000000
vn 0.000000 -1.000000 0.000000
vn -0.000000 0.000000 1.000000
usemtl Material
s off
f 1/1/1 4/2/1 3/3/1
f 1/1/1 3/3/1 2/4/1
f 5/5/2 6/6/2 7/7/2
f 5/5/2 7/7/2 8/8/2
f 1/1/3 2/9/3 6/10/3
f 1/1/3 6/10/3 5/5/3
f 2/4/4 3/3/4 7/11/4
f 2/4/4 7/11/4 6/12/4
f 3/13/5 4/2/5 8/8/5
f 3/13/5 8/8/5 7/14/5
f 5/5/6 8/8/6 4/2/6
f 5/5/6 4/2/6 1/1/6
